<svg width="100" height="100" viewBox="0 0 100 100" fill="none" xmlns="http://www.w3.org/2000/svg">
<circle cx="50" cy="50" r="49.25" stroke="#919191" stroke-width="1.5" stroke-dasharray="5 5"/>
<path d="M47.502 39H53.498C54.5088 39 55.4023 39.6492 55.7197 40.6117L56.2275 42.1429H59.875C61.5986 42.1429 63 43.5522 63 45.2857V57.8571C63 59.5906 61.5986 61 59.875 61H41.125C39.3989 61 38 59.5906 38 57.8571V45.2857C38 43.5522 39.3989 42.1429 41.125 42.1429H44.7725L45.2803 40.6117C45.5977 39.6492 46.4912 39 47.502 39ZM50.5 56.2857C53.0879 56.2857 55.1875 54.1741 55.1875 51.5714C55.1875 48.9246 53.0879 46.8571 50.5 46.8571C47.8682 46.8571 45.8125 48.9246 45.8125 51.5714C45.8125 54.1741 47.8682 56.2857 50.5 56.2857Z" fill="#909090"/>
</svg>
